<svg width="60" height="60" viewBox="0 0 60 60" fill="none" xmlns="http://www.w3.org/2000/svg">
<rect width="60" height="60" rx="30" fill="url(#paint0_linear_2001_14)"/>
<path d="M30 18C28.7566 18.0298 27.7266 18.4494 26.9099 19.2586C26.091 20.0657 25.6665 21.0837 25.6364 22.3125V29.5C25.6665 30.7288 26.091 31.7468 26.9099 32.5539C27.7266 33.3631 28.7566 33.7827 30 33.8125C31.2434 33.7827 32.2734 33.3631 33.0901 32.5539C33.909 31.7468 34.3335 30.7288 34.3636 29.5V22.3125C34.3335 21.0837 33.909 20.0657 33.0901 19.2586C32.2734 18.4494 31.2434 18.0298 30 18ZM24.1818 27.7015C24.1215 27.0435 23.7584 26.6846 23.0925 26.625C22.4245 26.6846 22.0603 27.0435 22 27.7015V29.5C22.0302 31.5359 22.6971 33.2726 24.0008 34.7101C25.2722 36.1476 26.9088 37.0165 28.9107 37.3168V38.8438H26.7289C26.0609 38.9034 25.6967 39.2633 25.6364 39.9235C25.6967 40.5815 26.0609 40.9404 26.7289 41H30H33.2743C33.9402 40.9404 34.3033 40.5815 34.3636 39.9235C34.3033 39.2633 33.9402 38.9034 33.2743 38.8438H31.0925V37.3168C33.0923 37.0165 34.7278 36.1476 35.9992 34.7101C37.3029 33.2726 37.9698 31.5359 38 29.5V27.7015C37.9397 27.0435 37.5766 26.6846 36.9107 26.625C36.2427 26.6846 35.8785 27.0435 35.8182 27.7015V29.5C35.788 31.1164 35.2277 32.4794 34.1374 33.5889C33.0147 34.6665 31.6356 35.2202 30 35.25C28.3644 35.2202 26.9853 34.6665 25.8626 33.5889C24.7723 32.4794 24.212 31.1164 24.1818 29.5V27.7015Z" fill="white"/>
<defs>
<linearGradient id="paint0_linear_2001_14" x1="0" y1="0" x2="60" y2="60" gradientUnits="userSpaceOnUse">
<stop stop-color="#8B5CF6"/>
<stop offset="1" stop-color="#6D28D9"/>
</linearGradient>
</defs>
</svg>
