<svg width="60" height="60" viewBox="0 0 60 60" fill="none" xmlns="http://www.w3.org/2000/svg">
<g filter="url(#filter0_i_183_9)">
<path d="M0 30C0 13.4315 13.4315 0 30 0C46.5685 0 60 13.4315 60 30C60 46.5685 46.5685 60 30 60C13.4315 60 0 46.5685 0 30Z" fill="#22C55E"/>
<mask id="mask0_183_9" style="mask-type:luminance" maskUnits="userSpaceOnUse" x="18" y="16" width="24" height="25">
<path d="M42 16.5H18V40.5H42V16.5Z" fill="white"/>
</mask>
<g mask="url(#mask0_183_9)">
<path d="M26.4444 19.9289C26.2889 19.5577 26.0417 19.2973 25.7028 19.1478C25.338 19 24.9602 18.9631 24.5694 19.0369L21.1333 19.9289C20.4296 20.1752 20.0519 20.6572 20 21.375C20.0259 24.4678 20.8204 27.2632 22.3833 29.7614C23.9463 32.2595 26.0426 34.251 28.6722 35.7358C31.3019 37.2206 34.2444 37.9754 37.5 38C38.2556 37.9507 38.763 37.5919 39.0222 36.9233L39.9611 33.659C40.0389 33.2878 40 32.9289 39.8444 32.5824C39.687 32.2604 39.413 32.0256 39.0222 31.8778L35.2722 30.3921C34.5704 30.1704 33.9722 30.3191 33.4778 30.8381L31.9139 32.6562C30.5343 32.037 29.2972 31.2207 28.2028 30.2074C27.1361 29.1676 26.2769 27.9925 25.625 26.6818L27.5389 25.1961C28.0852 24.7264 28.2417 24.1581 28.0083 23.4914L26.4444 19.9289Z" fill="white"/>
</g>
</g>
<defs>
<filter id="filter0_i_183_9" x="0" y="0" width="60" height="60" filterUnits="userSpaceOnUse" color-interpolation-filters="sRGB">
<feFlood flood-opacity="0" result="BackgroundImageFix"/>
<feBlend mode="normal" in="SourceGraphic" in2="BackgroundImageFix" result="shape"/>
<feColorMatrix in="SourceAlpha" type="matrix" values="0 0 0 0 0 0 0 0 0 0 0 0 0 0 0 0 0 0 127 0" result="hardAlpha"/>
<feOffset/>
<feGaussianBlur stdDeviation="2"/>
<feComposite in2="hardAlpha" operator="arithmetic" k2="-1" k3="1"/>
<feColorMatrix type="matrix" values="0 0 0 0 0.404 0 0 0 0 0.494 0 0 0 0 0.918 0 0 0 0.08 0"/>
<feBlend mode="normal" in2="shape" result="effect1_innerShadow_183_9"/>
</filter>
</defs>
</svg>
