<svg width="16" height="16" viewBox="0 0 16 16" fill="none" xmlns="http://www.w3.org/2000/svg">
<g clip-path="url(#clip0_0_1264)">
<g clip-path="url(#clip1_0_1264)">
<path d="M15.5538 0.18812C15.887 0.417626 16.0328 0.740414 15.9913 1.15648L13.9924 14.1494C13.9302 14.4619 13.7637 14.7017 13.4927 14.8691C13.201 15.0142 12.9093 15.0245 12.6176 14.9002L8.87075 13.3699L6.74746 15.6797C6.4143 15.9922 6.03895 16.0758 5.6214 15.9307C5.22606 15.7427 5.01802 15.4302 4.99729 14.9934V12.3704C4.99729 12.2446 5.03875 12.1402 5.12167 12.0572L10.3699 6.34257C10.5358 6.11306 10.5254 5.88355 10.3388 5.65405C10.1301 5.46748 9.90056 5.45712 9.65033 5.62296L3.31154 11.2777L0.561918 9.90286C0.208035 9.71481 0.0207295 9.42312 0 9.02778C0 8.63244 0.166576 8.33038 0.499729 8.1216L14.4922 0.125932C14.8668 -0.0606337 15.2206 -0.0399045 15.5538 0.18812Z" fill="white"/>
</g>
</g>
<defs>
<clipPath id="clip0_0_1264">
<rect width="15.9983" height="16" fill="white"/>
</clipPath>
<clipPath id="clip1_0_1264">
<rect width="15.9983" height="16" fill="white"/>
</clipPath>
</defs>
</svg>
