<svg width="60" height="60" viewBox="0 0 60 60" fill="none" xmlns="http://www.w3.org/2000/svg">
<path d="M0 30C0 13.4315 13.4315 0 30 0C46.5685 0 60 13.4315 60 30C60 46.5685 46.5685 60 30 60C13.4315 60 0 46.5685 0 30Z" fill="url(#paint0_linear_2001_2)"/>
<g clip-path="url(#clip0_2001_2)">
<path d="M20.5296 19.5296C19.8107 20.281 19.3687 21.3604 19.2036 22.7678C19.0407 24.1752 18.9756 26.1049 19.0081 28.5568V29.4432C18.9756 31.8951 19.0407 33.8248 19.2036 35.2322C19.3687 36.6396 19.8107 37.719 20.5296 38.4704C21.281 39.1893 22.3604 39.6313 23.7678 39.7964C25.1752 39.9593 27.1049 40.0244 29.5568 39.9919H30.4432C32.8951 40.0244 34.8248 39.9593 36.2322 39.7964C37.6396 39.6313 38.719 39.1893 39.4704 38.4704C40.1893 37.719 40.6313 36.6396 40.7964 35.2322C40.9593 33.8248 41.0244 31.8951 40.9919 29.4432V28.5568C41.0244 26.1049 40.9593 24.1752 40.7964 22.7678C40.6313 21.3604 40.1893 20.281 39.4704 19.5296C38.719 18.8107 37.6396 18.3687 36.2322 18.2036C34.8248 18.0407 32.8951 17.9756 30.4432 18.0081H29.5568C27.1049 17.9756 25.1752 18.0407 23.7678 18.2036C22.3604 18.3687 21.281 18.8107 20.5296 19.5296ZM22.7384 24.68H25.2404C25.3055 26.7737 25.6975 28.3114 26.4163 29.2931C27.1049 30.2748 27.8412 30.8483 28.6251 31.0134V24.68H30.9805V28.3126C31.7343 28.2149 32.438 27.8229 33.0917 27.1366C33.7454 26.448 34.2037 25.6292 34.4665 24.68H36.8219C36.6242 25.6292 36.2473 26.5132 35.6913 27.332C35.1354 28.116 34.4491 28.7534 33.6325 29.2443C34.5468 29.7025 35.3319 30.3411 35.9879 31.16C36.6416 31.944 37.0988 32.8431 37.3593 33.8574H34.7596C34.5317 32.9734 34.0734 32.2371 33.3848 31.6485C32.6985 31.06 31.8971 30.7005 30.9805 30.5703V33.8574H30.6874C28.168 33.8248 26.2383 33.0071 24.8984 31.4043C23.5235 29.8014 22.8035 27.56 22.7384 24.68Z" fill="white"/>
</g>
<defs>
<linearGradient id="paint0_linear_2001_2" x1="0" y1="0" x2="60" y2="60" gradientUnits="userSpaceOnUse">
<stop stop-color="#4C75A3"/>
<stop offset="1" stop-color="#2D4373"/>
</linearGradient>
<clipPath id="clip0_2001_2">
<rect width="24" height="22" fill="white" transform="translate(18 18)"/>
</clipPath>
</defs>
</svg>
