<svg width="60" height="60" viewBox="0 0 60 60" fill="none" xmlns="http://www.w3.org/2000/svg">
<g filter="url(#filter0_i_183_16)">
<path d="M0 30C0 13.4315 13.4315 0 30 0C46.5685 0 60 13.4315 60 30C60 46.569 46.5685 60 30 60C13.4315 60 0 46.569 0 30Z" fill="#16A34A"/>
<mask id="mask0_183_16" style="mask-type:luminance" maskUnits="userSpaceOnUse" x="18" y="16" width="24" height="25">
<path d="M42 16.5H18V40.5H42V16.5Z" fill="white"/>
</mask>
<g mask="url(#mask0_183_16)">
<mask id="mask1_183_16" style="mask-type:luminance" maskUnits="userSpaceOnUse" x="18" y="16" width="24" height="25">
<path d="M42 16.5H18V40.5H42V16.5Z" fill="white"/>
</mask>
<g mask="url(#mask1_183_16)">
<path d="M38.4114 19.9819C36.0546 17.6962 33.2508 16.5356 30 16.5C27.7854 16.5356 25.7854 17.0714 24 18.1076C22.2146 19.1794 20.786 20.6079 19.7143 22.393C18.6781 24.179 18.1422 26.179 18.1067 28.393C18.1067 30.537 18.6248 32.519 19.661 34.34L18 40.5L24.32 38.839C26.0698 39.804 27.9632 40.287 30 40.287C32.2146 40.251 34.2146 39.715 36 38.679C37.821 37.607 39.2673 36.179 40.339 34.393C41.4108 32.608 41.9644 30.608 42 28.393C42 26.786 41.6787 25.268 41.0362 23.841C40.4292 22.411 39.5543 21.125 38.4114 19.9819ZM30 38.302C28.179 38.266 26.5003 37.803 24.9638 36.911L24.5905 36.698L20.8381 37.662L21.859 34.016L21.6419 33.643C20.6438 32.035 20.1257 30.285 20.0876 28.393C20.1613 25.607 21.1441 23.286 23.0362 21.43C24.8927 19.5349 27.214 18.5698 30 18.5343C32.7149 18.5343 35.0362 19.4994 36.9638 21.43C38.9295 23.357 39.9479 25.678 40.019 28.393C39.9124 31.179 38.9117 33.518 37.0171 35.41C35.1251 37.267 32.786 38.231 30 38.302ZM35.4095 30.911C35.2317 30.805 34.8927 30.626 34.3924 30.374C33.8921 30.161 33.553 30.019 33.3752 29.948C33.1263 29.767 32.9117 29.803 32.7314 30.054C32.5892 30.232 32.4292 30.447 32.2514 30.698C32.0356 30.947 31.8743 31.125 31.7676 31.231C31.6254 31.447 31.4108 31.465 31.1238 31.285C30.2679 30.894 29.5187 30.448 28.8762 29.948C28.2337 29.447 27.6444 28.715 27.1086 27.75C26.9638 27.536 27.0171 27.322 27.2686 27.106C27.4463 26.963 27.6787 26.642 27.9657 26.142C28.0368 25.964 28.019 25.786 27.9124 25.609C27.8768 25.573 27.8044 25.394 27.6952 25.071C27.5886 24.784 27.4641 24.463 27.3219 24.108C27.1797 23.821 27.073 23.588 27.0019 23.41C26.786 22.981 26.5892 22.82 26.4114 22.927C26.3759 22.927 26.3581 22.927 26.3581 22.927C26.1778 22.927 25.981 22.927 25.7676 22.927C25.5543 22.891 25.2863 22.999 24.9638 23.25C24.9638 23.286 24.946 23.322 24.9105 23.357C24.7327 23.499 24.5359 23.767 24.32 24.161C24.1067 24.555 23.9822 25.09 23.9467 25.769C23.9822 26.482 24.1613 27.143 24.4838 27.75C24.8038 28.321 25.0171 28.678 25.1238 28.82C25.1238 28.82 25.1416 28.82 25.1771 28.82C25.1771 28.856 25.1949 28.891 25.2305 28.927C25.4108 29.249 25.9467 29.893 26.8381 30.858C27.6965 31.821 28.8216 32.642 30.2133 33.323C31.1429 33.714 31.8578 33.963 32.3581 34.07C32.894 34.143 33.3752 34.143 33.8019 34.07C34.1244 33.998 34.5003 33.838 34.9295 33.59C35.3587 33.338 35.6444 33.035 35.7867 32.679C36.0356 31.892 36.1067 31.409 36 31.231C35.9289 31.125 35.7867 31.036 35.5733 30.965C35.4997 30.929 35.4451 30.911 35.4095 30.911Z" fill="white"/>
</g>
</g>
</g>
<defs>
<filter id="filter0_i_183_16" x="0" y="0" width="60" height="60" filterUnits="userSpaceOnUse" color-interpolation-filters="sRGB">
<feFlood flood-opacity="0" result="BackgroundImageFix"/>
<feBlend mode="normal" in="SourceGraphic" in2="BackgroundImageFix" result="shape"/>
<feColorMatrix in="SourceAlpha" type="matrix" values="0 0 0 0 0 0 0 0 0 0 0 0 0 0 0 0 0 0 127 0" result="hardAlpha"/>
<feOffset/>
<feGaussianBlur stdDeviation="2"/>
<feComposite in2="hardAlpha" operator="arithmetic" k2="-1" k3="1"/>
<feColorMatrix type="matrix" values="0 0 0 0 0.404 0 0 0 0 0.494 0 0 0 0 0.918 0 0 0 0.08 0"/>
<feBlend mode="normal" in2="shape" result="effect1_innerShadow_183_16"/>
</filter>
</defs>
</svg>
